<svg viewBox="0 0 200 200" xmlns="http://www.w3.org/2000/svg">
  <path fill="#FF6F3C" d="M19.2,-34.4C28.6,-28,42.2,-30.1,56,-25.8C69.8,-21.5,83.8,-10.7,79.2,-2.7C74.5,5.4,51.2,10.7,37,14.5C22.9,18.2,17.9,20.3,13.3,32.3C8.6,44.3,4.3,66.2,-2.4,70.3C-9.1,74.5,-18.2,60.9,-29.5,52.8C-40.8,44.6,-54.3,41.9,-53.7,34C-53.1,26.1,-38.4,13.1,-32.8,3.2C-27.2,-6.6,-30.7,-13.2,-29.5,-17.9C-28.3,-22.7,-22.4,-25.6,-16.7,-34C-11,-42.5,-5.5,-56.5,-0.3,-56.1C5,-55.7,9.9,-40.7,19.2,-34.4Z" transform="translate(100 100)" />
</svg>